Coordinates
version=1
nRows=27
nColumns=12
inDegrees=yes

Units are S.I. units (second, meters, Newtons, ...)
Angles are in degrees

endheader
time	SC_y	SC_z	SC_x	AC_y	AC_z	AC_x	GH_y	GH_z	GH_yy	EL_x	PS_y
       0.0               -39.0          24.57          32.04          46.71          9.049        -0.1134          65.19         -14.18         -176.9          53.18          128.4
   0.02552               -39.0          24.57          32.05          46.71          9.049        -0.1136          65.15         -14.17         -176.9          53.18          128.3
   0.05104               -39.0          24.57          32.05          46.71          9.049        -0.1137          65.12         -14.16         -176.8          53.18          128.3
   0.07655               -39.0          24.57          32.06          46.71          9.049        -0.1138          65.08         -14.15         -176.8          53.19          128.3
    0.1021               -39.0          24.56          32.07          46.71           9.05         -0.114          65.04         -14.14         -176.7          53.19          128.3
    0.1276               -39.0          24.56          32.08          46.71           9.05        -0.1142           65.0         -14.13         -176.7          53.19          128.3
    0.1531               -39.0          24.56          32.09          46.72           9.05        -0.1143          64.95         -14.12         -176.6           53.2          128.3
    0.1786               -39.0          24.55           32.1          46.72           9.05        -0.1145           64.9         -14.11         -176.5           53.2          128.3
    0.2041               -39.0          24.55          32.11          46.72           9.05        -0.1147          64.85          -14.1         -176.5          53.21          128.3
    0.2297               -39.0          24.54          32.12          46.72           9.05        -0.1149          64.79         -14.08         -176.4          53.21          128.3
    0.2552               -39.0          24.54          32.14          46.72           9.05        -0.1151          64.73         -14.07         -176.3          53.22          128.3
    0.2807              -38.99          24.53          32.15          46.72           9.05        -0.1154          64.67         -14.05         -176.2          53.22          128.3
    0.3062              -38.99          24.53          32.17          46.72           9.05        -0.1157           64.6         -14.03         -176.1          53.23          128.3
    0.3317              -38.99          24.52          32.18          46.72           9.05        -0.1159          64.52         -14.01         -176.0          53.23          128.3
    0.3573              -38.99          24.51           32.2          46.72           9.05        -0.1162          64.44         -13.99         -175.9          53.24          128.3
    0.3828              -38.99          24.51          32.22          46.73           9.05        -0.1166          64.35         -13.97         -175.7          53.25          128.3
    0.4083              -38.99           24.5          32.24          46.73           9.05        -0.1169          64.26         -13.95         -175.6          53.26          128.3
    0.4338              -38.99          24.49          32.26          46.73           9.05        -0.1173          64.15         -13.92         -175.4          53.27          128.3
    0.4593              -38.99          24.48          32.29          46.73          9.051        -0.1178          64.04         -13.89         -175.3          53.28          128.3
    0.4848              -38.99          24.47          32.31          46.73          9.051        -0.1183          63.91         -13.86         -175.1          53.29          128.3
    0.5104              -38.99          24.46          32.34          46.74          9.051        -0.1188          63.78         -13.83         -174.9           53.3          128.3
    0.5359              -38.98          24.45          32.38          46.74          9.051        -0.1193          63.62         -13.79         -174.7          53.31          128.3
    0.5614              -38.98          24.43          32.41          46.74          9.051          -0.12          63.46         -13.75         -174.4          53.33          128.3
    0.5869              -38.98          24.42          32.45          46.74          9.051        -0.1207          63.27          -13.7         -174.1          53.34          128.3
    0.6124              -38.98           24.4           32.5          46.75          9.051        -0.1215          63.07         -13.65         -173.8          53.36          128.3
     0.638              -38.98          24.38          32.55          46.75          9.052        -0.1223          62.84         -13.59         -173.5          53.38          128.2
    0.6635              -38.97          24.36           32.6          46.76          9.052        -0.1233          62.58         -13.52         -173.1           53.4          128.2
